<svg width="300" height="119" viewBox="0 0 300 119" fill="none" xmlns="http://www.w3.org/2000/svg">
<path d="M0 29.4694C0 39.5163 6.00069 47.4028 17.3923 47.4028C28.0449 47.4028 33.5045 40.7964 33.7751 33.3137H27.4392C26.8294 38.0989 23.9341 42.0119 17.3923 42.0119C10.8545 42.0119 6.80832 38.9106 6.80832 29.4694C6.80832 20.2342 10.9232 16.931 17.5296 16.931C23.9341 16.931 26.5629 20.7066 27.1 25.2253H33.4399C33.1007 17.3348 27.7744 11.54 17.259 11.54C5.93204 11.54 0 19.4265 0 29.4694Z" fill="black"/>
<path d="M82.5767 26.6389V21.2479H74.8234C72.0573 21.2479 69.699 22.7299 69.5658 26.6389C69.4971 29.2677 69.0933 31.5614 68.4189 33.5845L57.4957 24.1433C57.2938 24.01 57.1606 23.8081 56.9587 23.6749L61.2714 21.785C67.1388 19.1562 70.3734 15.9862 70.3734 10.5953C70.3734 4.32406 65.1157 0.277832 56.9587 0.277832C48.531 0.277832 43.0028 4.46135 43.0028 11.8754C43.0028 15.853 45.0259 19.1562 47.8567 22.2575C41.5854 25.4274 38.2822 28.9971 38.2822 35.337C38.2822 43.8292 45.7649 47.5403 54.5317 47.5403C61.7439 47.5403 66.731 45.4485 69.9696 41.6729L77.5855 48.2106L81.0906 44.5036L72.7317 37.2915C74.0118 34.3235 74.7548 30.6851 75.0253 26.6389H82.5767ZM56.9587 4.99843C61.2714 4.99843 63.767 6.88828 63.767 11.0678C63.767 14.2337 61.6752 15.9216 58.1701 17.5369L52.9811 19.8992C50.8207 17.4723 49.6092 15.1099 49.6092 11.7421C49.6092 7.22344 52.44 4.99843 56.9587 4.99843ZM54.8669 42.4805C48.2605 42.4805 44.8886 39.4479 44.8886 34.8646C44.8886 31.0889 47.4529 28.0562 51.7656 26.0331L53.6555 27.6524L65.8547 38.0991C63.3632 40.9985 59.6521 42.4805 54.8669 42.4805Z" fill="black"/>
<path d="M17.259 100.988C11.4603 100.988 7.14752 98.4242 6.60641 89.932H33.1693C33.3026 89.0557 33.3026 88.2441 33.3026 87.3678C33.3026 77.7287 27.7744 70.1128 17.0571 70.1128C5.52822 70.1128 0 78.1326 0 87.9776C0 97.9518 5.05576 105.976 17.0571 105.976C28.9212 105.976 32.6282 99.3692 33.2339 94.7172H27.0354C26.0905 98.2223 23.393 100.988 17.259 100.988ZM17.1217 75.0999C23.1224 75.0999 26.4943 78.2012 26.8294 85.0095H6.67506C7.48269 77.5268 11.327 75.0999 17.1217 75.0999Z" fill="black"/>
<path d="M35.9238 104.897H43.4752L52.981 92.0192L62.4181 104.897H70.4419L57.0272 87.7751L69.7675 71.1904H62.2162L53.1829 83.7975L44.1495 71.1904H36.1257L49.072 88.0416L35.9238 104.897Z" fill="black"/>
<path d="M93.8248 70.1128C87.7595 70.1128 83.6447 72.6043 81.355 76.9857V71.191H74.6113V118.381H81.355V99.0986C83.6447 103.48 87.7595 105.976 93.8248 105.976C104.679 105.976 109.533 97.9518 109.533 88.0422C109.533 78.1326 104.679 70.1128 93.8248 70.1128ZM92.4115 100.585C85.3326 100.585 81.355 96.6717 81.355 88.0422C81.355 79.4126 85.3326 75.5037 92.4115 75.5037C99.8942 75.5037 102.725 79.6832 102.725 88.0422C102.725 96.4011 99.8942 100.585 92.4115 100.585Z" fill="black"/>
<path d="M115.459 104.897H122.199V57.7075H115.459V104.897Z" fill="black"/>
<path d="M139.927 105.774C147.071 105.774 150.778 101.526 152.126 97.2782C152.126 99.9757 152.264 102.269 152.53 104.898H158.668C158.398 101.728 158.329 99.7092 158.329 97.2136V80.4956C158.329 74.2931 153.746 70.0449 144.442 70.0449C134.867 70.0449 129.545 74.5596 129.476 81.7071H136.216C136.555 77.459 139.184 75.2339 144.712 75.2339C150.511 75.2339 152.126 77.3257 152.126 80.3583C152.126 82.7166 150.644 83.7302 147.41 84.2673L138.982 85.6847C131.431 86.9648 128.733 90.4699 128.733 95.8648C128.733 102.067 133.05 105.774 139.927 105.774ZM141.34 100.585C137.835 100.585 135.477 98.8288 135.477 95.5943C135.477 92.493 137.294 90.8737 141.478 89.9328L146.126 88.8546C148.149 88.3821 150.309 87.841 152.126 86.4923V88.5154C152.126 95.2591 148.419 100.585 141.34 100.585Z" fill="black"/>
<path d="M164.392 66.1348H172.884V60.0654H164.392V66.1348ZM165.268 104.897H172.008V71.1905H165.268V104.897Z" fill="black"/>
<path d="M198.5 70.1128C192.026 70.1128 188.319 73.7512 186.296 78.7383V71.191H179.557V104.897H186.296V90.671C186.296 79.9538 189.939 75.7056 196.545 75.7056C200.789 75.7056 204.028 77.3936 204.028 84.4684V104.897H210.767V83.8627C210.767 75.0313 207.464 70.1128 198.5 70.1128Z" fill="black"/>
<path d="M233.278 100.988C227.479 100.988 223.166 98.4242 222.625 89.932H249.188C249.321 89.0557 249.321 88.2441 249.321 87.3678C249.321 77.7287 243.793 70.1128 233.076 70.1128C221.547 70.1128 216.019 78.1326 216.019 87.9776C216.019 97.9518 221.074 105.976 233.076 105.976C244.94 105.976 248.647 99.3692 249.253 94.7172H243.054C242.109 98.2223 239.412 100.988 233.278 100.988ZM233.14 75.0999C239.141 75.0999 242.513 78.2012 242.848 85.0095H222.694C223.501 77.5268 227.346 75.0999 233.14 75.0999Z" fill="black"/>
<path d="M281.537 57.7075V76.9856C279.247 72.6042 275.132 70.1127 269.067 70.1127C258.212 70.1127 253.358 78.1325 253.358 88.0421C253.358 97.9517 258.212 105.975 269.067 105.975C275.132 105.975 279.247 103.48 281.537 99.0985V104.897H288.28V57.7075H281.537ZM270.48 100.585C262.997 100.585 260.167 96.401 260.167 88.0421C260.167 79.6831 262.997 75.5036 270.48 75.5036C277.559 75.5036 281.537 79.4126 281.537 88.0421C281.537 96.6716 277.559 100.585 270.48 100.585Z" fill="black"/>
<path d="M291.975 104.896H299.998V98.4233H291.975V104.896Z" fill="black"/>
</svg>
